<svg width="121" height="120" viewBox="0 0 121 120" fill="none" xmlns="http://www.w3.org/2000/svg">
<path d="M12.5 65.1133C12.5 77.8437 17.5571 90.0527 26.5589 99.0544C35.5606 108.056 47.7696 113.113 60.5 113.113C73.2304 113.113 85.4394 108.056 94.4411 99.0544C103.443 90.0527 108.5 77.8437 108.5 65.1133C108.5 52.3829 103.443 40.1739 94.4411 31.1722C85.4394 22.1704 73.2304 17.1133 60.5 17.1133C47.7696 17.1133 35.5606 22.1704 26.5589 31.1722C17.5571 40.1739 12.5 52.3829 12.5 65.1133Z" fill="#F8F7FA"/>
<path opacity="0.15" d="M73.5247 106.32C73.5247 105.385 67.9663 104.627 61.1095 104.627C54.2527 104.627 48.6943 105.385 48.6943 106.32C48.6943 107.255 54.2527 108.013 61.1095 108.013C67.9663 108.013 73.5247 107.26 73.5247 106.32Z" fill="#1E0A3C"/>
<path d="M32.9004 91.1136C32.9 91.3999 32.9928 91.6786 33.1646 91.9076C33.3365 92.1366 33.5782 92.3035 33.8532 92.3831L59.7168 99.9276C59.9747 100.003 60.2426 100.038 60.5112 100.032V69.0971L32.9004 61.0439V91.1136Z" fill="#F7E5C6"/>
<path d="M54.474 79.3776L60.5112 73.3403V69.096L32.9004 61.0439V73.0859L54.474 79.3776Z" fill="#F0D5A8"/>
<path d="M60.5112 69.0971L32.9004 61.0439L60.5112 52.9907L88.1208 61.1459L60.5112 69.0971Z" fill="#DEBB7E" stroke="#1E0A3C" stroke-width="0.24" stroke-linecap="round" stroke-linejoin="round"/>
<path d="M60.5112 69.0971L32.9004 61.0439L60.5112 52.9907V69.0971Z" fill="#B89558" stroke="#1E0A3C" stroke-width="0.24" stroke-linecap="round" stroke-linejoin="round"/>
<path d="M60.5107 69.0972V100.032C60.7772 100.027 61.0414 99.9815 61.2943 99.8976L87.2143 91.2576C87.4787 91.1703 87.7086 91.0016 87.8714 90.7758C88.0341 90.5499 88.1212 90.2784 88.1203 90V61.146L60.5107 69.0972Z" fill="#F0D5A8"/>
<path d="M66.4639 79.3776L88.1203 73.0368L88.1215 61.146L60.5107 69.096V72.5532L66.4639 79.3776Z" fill="#DEBB7E"/>
<path d="M60.5112 69.0971L32.9004 61.0439V91.1135C32.9 91.3999 32.9928 91.6786 33.1646 91.9076C33.3365 92.1366 33.5782 92.3035 33.8532 92.3831L59.7168 99.9264C60.2335 100.077 60.7839 100.067 61.2948 99.8975L87.2148 91.2575C87.4791 91.1702 87.7091 91.0016 87.8718 90.7757C88.0345 90.5499 88.1217 90.2783 88.1208 89.9999V61.1459L60.5112 69.0971Z" stroke="#1E0A3C" stroke-width="0.24" stroke-linecap="round" stroke-linejoin="round"/>
<path d="M28.2325 53.5583C28.0067 53.6165 27.8003 53.7336 27.6345 53.8975C27.4686 54.0614 27.3491 54.2663 27.2881 54.4914C27.2271 54.7164 27.2269 54.9537 27.2874 55.1789C27.3479 55.4041 27.4669 55.6093 27.6325 55.7735L32.9005 61.0439L60.5113 52.9907L53.4649 47.9579C53.1497 47.7323 52.7886 47.5789 52.4074 47.5086C52.0262 47.4383 51.6342 47.4528 51.2593 47.5511L28.2325 53.5583Z" fill="#DEBB7E" stroke="#1E0A3C" stroke-width="0.24" stroke-linecap="round" stroke-linejoin="round"/>
<path d="M54.7159 74.8919C54.3801 75.228 53.9599 75.4673 53.4996 75.5849C53.0393 75.7025 52.5558 75.6941 52.0999 75.5603L28.1419 68.5716C27.9208 68.508 27.7201 68.3877 27.5597 68.2227C27.3994 68.0576 27.285 67.8535 27.2278 67.6306C27.1707 67.4077 27.1729 67.1737 27.2341 66.9518C27.2953 66.73 27.4134 66.528 27.5767 66.3659L32.8999 61.0439L60.5107 69.0971L54.7159 74.8919Z" fill="#F0D5A8" stroke="#1E0A3C" stroke-width="0.24" stroke-linecap="round" stroke-linejoin="round"/>
<path d="M60.5107 69.0972V100.032" stroke="#1E0A3C" stroke-width="0.24" stroke-linecap="round" stroke-linejoin="round"/>
<path d="M92.402 53.5743C92.6632 53.6426 92.9016 53.7787 93.0933 53.9688C93.285 54.1589 93.4232 54.3961 93.4938 54.6567C93.5644 54.9172 93.565 55.1918 93.4955 55.4527C93.426 55.7135 93.2889 55.9514 93.098 56.1423L88.1 61.1463L60.5156 53.1063L67.9772 47.7771C68.1597 47.646 68.3688 47.5566 68.5896 47.5152C68.8104 47.4737 69.0376 47.4812 69.2552 47.5371L92.402 53.5743Z" fill="#F0D5A8" stroke="#1E0A3C" stroke-width="0.24" stroke-linecap="round" stroke-linejoin="round"/>
<path d="M48.9996 35C47.9996 36.8333 47.0996 41.6 51.4996 46C56.9996 51.5 56.9995 54 54.9995 59" stroke="#1E0A3C" stroke-width="0.24"/>
<path d="M64.7211 23C65.7211 24.8333 66.6211 29.6 62.2211 34C56.7211 39.5 56.7212 42 58.7212 47" stroke="#1E0A3C" stroke-width="0.24"/>
<path d="M72.7211 35C73.7211 36.8333 74.6211 41.6 70.2211 46C64.7211 51.5 64.7212 54 66.7212 59" stroke="#1E0A3C" stroke-width="0.24"/>
<path d="M66.764 75.4452C66.9585 75.6397 67.2017 75.7782 67.4681 75.8464C67.7346 75.9146 68.0144 75.9099 68.2784 75.8328L92.5052 68.7672C92.7609 68.6927 92.9928 68.5529 93.178 68.3615C93.3632 68.1701 93.4953 67.9338 93.5614 67.6758C93.6274 67.4177 93.625 67.147 93.5545 66.8902C93.484 66.6333 93.3478 66.3993 93.1592 66.2112L88.1 61.146L60.5156 69.186L66.764 75.4452Z" fill="#DEBB7E" stroke="#1E0A3C" stroke-width="0.24" stroke-linecap="round" stroke-linejoin="round"/>
</svg>
