<svg width="40" height="40" viewBox="0 0 40 40" fill="none" xmlns="http://www.w3.org/2000/svg">
<g clip-path="url(#clip0_2360_28586)">
<rect x="16.6699" y="6.66992" width="21.6667" height="30" fill="#E7E7ED"/>
<path d="M30.8333 39.1667C35.4357 39.1667 39.1667 35.4357 39.1667 30.8333C39.1667 26.231 35.4357 22.5 30.8333 22.5C26.231 22.5 22.5 26.231 22.5 30.8333C22.5 35.4357 26.231 39.1667 30.8333 39.1667Z" stroke="#393A4A" stroke-linecap="round" stroke-linejoin="round"/>
<path d="M27.667 27.667L34.0002 34.0002" stroke="#393A4A" stroke-linecap="round" stroke-linejoin="round"/>
<path d="M27.667 34L34.0002 27.6668" stroke="#393A4A" stroke-linecap="round" stroke-linejoin="round"/>
<path d="M0.833008 25.8335C0.833008 23.1813 1.88658 20.6378 3.76194 18.7624C5.6373 16.8871 8.18084 15.8335 10.833 15.8335C13.4852 15.8335 16.0287 16.8871 17.9041 18.7624C19.7794 20.6378 20.833 23.1813 20.833 25.8335H0.833008Z" stroke="#393A4A" stroke-linecap="round" stroke-linejoin="round"/>
<path d="M10.833 13.3335C14.2848 13.3335 17.083 10.5353 17.083 7.0835C17.083 3.63172 14.2848 0.833496 10.833 0.833496C7.38123 0.833496 4.58301 3.63172 4.58301 7.0835C4.58301 10.5353 7.38123 13.3335 10.833 13.3335Z" stroke="#393A4A" stroke-linecap="round" stroke-linejoin="round"/>
<path d="M26.667 13.3335C30.1188 13.3335 32.917 10.5353 32.917 7.0835C32.917 3.63172 30.1188 0.833496 26.667 0.833496C23.2152 0.833496 20.417 3.63172 20.417 7.0835C20.417 10.5353 23.2152 13.3335 26.667 13.3335Z" stroke="#393A4A" stroke-linecap="round" stroke-linejoin="round"/>
<path d="M32.4499 17.6752C30.8922 16.5707 29.0508 15.9352 27.1435 15.8439C25.2361 15.7527 23.3425 16.2094 21.6865 17.1602" stroke="#393A4A" stroke-linecap="round" stroke-linejoin="round"/>
</g>
<defs>
<clipPath id="clip0_2360_28586">
<rect width="40" height="40" fill="white"/>
</clipPath>
</defs>
</svg>
