<svg width="40" height="40" viewBox="0 0 40 40" fill="none" xmlns="http://www.w3.org/2000/svg">
<rect x="16.6699" y="6.66992" width="21.6667" height="30" fill="#FFEBCC"/>
<path d="M31.1531 37.9874C35.5637 37.9874 39.1392 34.4119 39.1392 30.0012C39.1392 25.5906 35.5637 22.0151 31.1531 22.0151C26.7425 22.0151 23.167 25.5906 23.167 30.0012C23.167 34.4119 26.7425 37.9874 31.1531 37.9874Z" stroke="#806B00" stroke-linecap="round" stroke-linejoin="round"/>
<path d="M31 26.1816V30.0011L35.1667 33.8205" stroke="#806B00" stroke-linecap="round" stroke-linejoin="round"/>
<path d="M0.833008 25.8335C0.833008 23.1813 1.88658 20.6378 3.76194 18.7624C5.6373 16.8871 8.18084 15.8335 10.833 15.8335C13.4852 15.8335 16.0287 16.8871 17.9041 18.7624C19.7794 20.6378 20.833 23.1813 20.833 25.8335H0.833008Z" stroke="#806B00" stroke-linecap="round" stroke-linejoin="round"/>
<path d="M10.833 13.3335C14.2848 13.3335 17.083 10.5353 17.083 7.0835C17.083 3.63172 14.2848 0.833496 10.833 0.833496C7.38123 0.833496 4.58301 3.63172 4.58301 7.0835C4.58301 10.5353 7.38123 13.3335 10.833 13.3335Z" stroke="#806B00" stroke-linecap="round" stroke-linejoin="round"/>
<path d="M26.667 13.3335C30.1188 13.3335 32.917 10.5353 32.917 7.0835C32.917 3.63172 30.1188 0.833496 26.667 0.833496C23.2152 0.833496 20.417 3.63172 20.417 7.0835C20.417 10.5353 23.2152 13.3335 26.667 13.3335Z" stroke="#806B00" stroke-linecap="round" stroke-linejoin="round"/>
<path d="M32.4499 17.6752C30.8941 16.572 29.0553 15.9367 27.1503 15.8443C25.2452 15.7518 23.3535 16.2061 21.6982 17.1535" stroke="#806B00" stroke-linecap="round" stroke-linejoin="round"/>
</svg>
